<?xml version="1.0" encoding="utf-8"?><svg version="1.1" id="Layer_1" xmlns="http://www.w3.org/2000/svg" xmlns:xlink="http://www.w3.org/1999/xlink" x="0px" y="0px" viewBox="0 0 122.88 122.88" style="enable-background:new 0 0 122.88 122.88" xml:space="preserve"><style type="text/css"><![CDATA[
	.st0{fill-rule:evenodd;clip-rule:evenodd;fill:#D8453E;}
	.st1{fill:#393939;}
]]></style><g><path class="st0" d="M61.44,0c8.42,0,16.45,1.7,23.75,4.77L71.63,18.33c-3.27-0.77-6.68-1.18-10.19-1.18 c-24.46,0-44.29,19.83-44.29,44.29c0,3.51,0.41,6.92,1.18,10.19L4.76,85.2C1.7,77.89,0,69.86,0,61.44C0,27.51,27.51,0,61.44,0 L61.44,0z M118.49,38.59c2.83,7.06,4.39,14.77,4.39,22.85c0,33.93-27.51,61.44-61.44,61.44c-8.08,0-15.79-1.56-22.85-4.39 l13.7-13.7c2.95,0.62,6.01,0.95,9.14,0.95c24.46,0,44.29-19.83,44.29-44.29c0-3.13-0.33-6.19-0.95-9.14L118.49,38.59L118.49,38.59z"/><path class="st1" d="M13.04,94.29l12.39-12.39l3.49,3.49l-7.36,7.36l2.83,2.83l6.29-6.29l3.28,3.28l-6.3,6.29l6.61,6.61l-5.03,5.03 L13.04,94.29L13.04,94.29z M49.24,85.18l-5.68,5.68l1.86,3.49l-5.11,5.11L30.19,77.14l5.48-5.49l22.29,10.14l-5.25,5.25 L49.24,85.18L49.24,85.18z M44.67,82.73l-7.6-4.06l4.05,7.6L44.67,82.73L44.67,82.73z M43.27,64.06l5.03-5.03l16.21,16.21 l-5.03,5.03L43.27,64.06L43.27,64.06z M51.62,55.72l5-5.01l12.23,12.23l7.84-7.84l3.99,3.99L67.83,71.93L51.62,55.72L51.62,55.72z M66.45,40.88l13.41-13.41l3.47,3.46l-8.38,8.38l2.58,2.58l7.77-7.77l3.31,3.31l-7.77,7.77l3.19,3.19l8.63-8.63l3.67,3.67 L82.66,57.09L66.45,40.88L66.45,40.88z M82.61,24.73l7.45-7.45c1.46-1.46,2.85-2.45,4.15-2.96c1.3-0.5,2.62-0.68,3.95-0.53 c1.34,0.16,2.63,0.59,3.88,1.32c1.26,0.72,2.44,1.63,3.54,2.74c1.73,1.73,2.88,3.27,3.44,4.62c0.56,1.35,0.82,2.69,0.76,4.04 c-0.06,1.35-0.38,2.53-0.97,3.55c-0.8,1.39-1.65,2.54-2.54,3.43l-7.45,7.45L82.61,24.73L82.61,24.73z M91.28,23.39l8.85,8.85 l1.23-1.23c1.05-1.05,1.68-1.91,1.89-2.59c0.21-0.68,0.15-1.43-0.17-2.26c-0.33-0.84-1.14-1.9-2.44-3.19 c-1.72-1.72-3.17-2.61-4.37-2.68c-1.2-0.07-2.45,0.54-3.75,1.84L91.28,23.39L91.28,23.39z"/></g></svg>