<svg width="19" height="19" viewBox="0 0 19 19" fill="none" xmlns="http://www.w3.org/2000/svg">
<path d="M15.0417 6.33335L11.875 9.50002H14.25C14.25 12.1204 12.1204 14.25 9.5 14.25C8.70041 14.25 7.94041 14.0521 7.28333 13.6959L6.1275 14.8517C7.10125 15.4692 8.25708 15.8334 9.5 15.8334C12.9992 15.8334 15.8333 12.9992 15.8333 9.50002H18.2083L15.0417 6.33335ZM4.75 9.50002C4.75 6.8796 6.87958 4.75002 9.5 4.75002C10.2996 4.75002 11.0596 4.94794 11.7167 5.30419L12.8725 4.14835C11.8987 3.53085 10.7429 3.16669 9.5 3.16669C6.00083 3.16669 3.16666 6.00085 3.16666 9.50002H0.791664L3.95833 12.6667L7.125 9.50002H4.75Z" fill="white"/>
<g>
</g>
<g>
</g>
<g>
</g>
<g>
</g>
<g>
</g>
<g>
</g>
<g>
</g>
<g>
</g>
<g>
</g>
<g>
</g>
<g>
</g>
<g>
</g>
<g>
</g>
<g>
</g>
<g>
</g>
</svg>
